<?xml version="1.0" encoding="iso-8859-1"?>
<!-- Generator: Adobe Illustrator 19.0.0, SVG Export Plug-In . SVG Version: 6.00 Build 0)  -->
<svg xmlns="http://www.w3.org/2000/svg" xmlns:xlink="http://www.w3.org/1999/xlink" version="1.1" id="Layer_1" x="0px" y="0px" viewBox="0 0 512 512" style="enable-background:new 0 0 512 512;" xml:space="preserve" width="512px" height="512px">
<g>
	<g>
		<path d="M487.283,312.83v-16.811c0-53.184-18.498-105.117-52.085-146.228c-12.033-14.728-25.806-27.84-40.899-39.103v-1.814    c0-4.876-3.952-8.828-8.828-8.828c-1.694,0-3.27,0.485-4.614,1.312c-21.151-13.584-44.46-23.71-68.949-29.802V50.023    c0-4.876-3.952-8.828-8.828-8.828H208.92c-4.875,0-8.828,3.951-8.828,8.828v21.531c-24.489,6.093-47.798,16.218-68.951,29.803    c-1.343-0.826-2.92-1.311-4.613-1.311c-4.875,0-8.828,3.951-8.828,8.828v1.814c-15.093,11.263-28.867,24.375-40.9,39.104    c-33.587,41.112-52.084,93.043-52.084,146.227v16.811C10.551,316.277,0,329.064,0,344.276c0,17.847,14.52,32.368,32.368,32.368    h27.39c3.995,19.688,21.117,39.218,48.35,54.683c29.21,16.586,65.76,26.242,103.752,27.542v3.109c0,4.876,3.952,8.828,8.828,8.828    h70.621c4.875,0,8.828-3.951,8.828-8.828v-3.109c37.993-1.301,74.543-10.957,103.752-27.542    c27.234-15.465,44.356-34.995,48.35-54.683h27.393c17.848,0,32.368-14.521,32.368-32.368    C512,329.064,501.449,316.277,487.283,312.83z M217.747,58.851h76.506v167.724c0,5.858-15.256,14.713-38.253,14.713    s-38.253-8.855-38.253-14.713V58.851z M42.372,296.018c0-63.918,28.95-122.867,75.329-162.571v116.668    c0,4.876,3.952,8.828,8.828,8.828s8.828-3.951,8.828-8.828v-130.26c19.421-13.405,41.219-23.692,64.736-30.062v136.782    c0,18.453,24.035,32.368,55.908,32.368s55.908-13.915,55.908-32.368V89.794c23.516,6.37,45.315,16.658,64.736,30.062v130.259    c0,4.876,3.952,8.828,8.828,8.828s8.828-3.951,8.828-8.828V133.448c46.379,39.704,75.329,98.652,75.329,162.57v15.817    c-45.807-0.673-72.225-5.955-100.08-11.525c-29.355-5.872-59.707-11.942-113.547-11.942s-84.193,6.07-113.547,11.941    c-27.855,5.571-54.273,10.852-100.08,11.525V296.018z M211.862,441.191c-34.615-1.324-68.828-10.335-95.034-25.218    c-20.648-11.725-34.486-25.902-38.845-39.33h18.14c4.742,10.793,17.931,21.42,37.776,30.117    c22.592,9.899,49.983,15.757,77.963,16.784V441.191z M211.862,403.126v2.747c-25.354-1.039-50.763-6.47-70.876-15.283    c-11.166-4.893-18.499-9.834-23.023-13.946h111.555v17.655h-8.828C215.814,394.299,211.862,398.25,211.862,403.126z     M282.483,453.149h-52.966v-41.195h52.966V453.149z M247.172,394.299v-17.655h17.655v17.655H247.172z M291.312,394.299h-8.829    v-17.655h111.555c-4.523,4.111-11.857,9.052-23.022,13.946c-20.113,8.813-45.523,14.245-70.876,15.283v-2.747    C300.139,398.25,296.187,394.299,291.312,394.299z M395.172,415.974c-26.207,14.882-60.419,23.893-95.034,25.217v-17.646    c27.979-1.028,55.37-6.886,77.963-16.784c19.846-8.697,33.034-19.324,37.776-30.117h18.14    C429.659,390.071,415.82,404.248,395.172,415.974z M479.632,358.989H32.368c-8.113,0-14.713-6.6-14.713-14.713    c0-8.113,6.6-14.713,14.713-14.713c0.372,0,0.731-0.004,1.101-0.005c0.025,0.001,0.051,0.005,0.076,0.005    c0.029,0,0.059-0.005,0.088-0.005c53.043-0.095,83.161-6.112,112.281-11.937c29.825-5.964,57.995-11.598,110.086-11.598    s80.26,5.634,110.085,11.598c29.12,5.824,59.238,11.842,112.282,11.937c0.029,0,0.059,0.005,0.088,0.005    c0.026,0,0.051-0.004,0.076-0.005c0.37,0.001,0.729,0.005,1.101,0.005c8.113,0,14.713,6.599,14.713,14.713    C494.345,352.389,487.745,358.989,479.632,358.989z" fill="#FFFFFF"/>
	</g>
</g>
<g>
</g>
<g>
</g>
<g>
</g>
<g>
</g>
<g>
</g>
<g>
</g>
<g>
</g>
<g>
</g>
<g>
</g>
<g>
</g>
<g>
</g>
<g>
</g>
<g>
</g>
<g>
</g>
<g>
</g>
</svg>
